<svg viewBox="0 0 493.85 790.56" xmlns="http://www.w3.org/2000/svg"><path d="m101.8 427.82c-.65-3.12-1.2-6.3-1.69-9.52-16.55.41-33.18 1.49-49.64 3.25 2.89 6.78 6.14 13.42 9.73 19.89z" fill="#ffa7ff"/><path d="m105.76 442.99-37.24 12.19c4.4 6.7 9.18 13.08 14.27 19.2 34.13-22.98 28.18-14.84 22.98-31.39z" fill="#ff5ad8"/><path d="m105.45 351.14c-8.04-2.58-16.32-5.25-24.78-7.97-3.45 10.39-6.2 21.05-8.16 31.81 35.91 1.03 24.07 7.12 32.94-23.83z" fill="#8d4392"/><path d="m35.79 543.65c78.12-56.43 65.26-40.85-.28-35.83z" fill="#32287e"/><path d="m73.52 324.43c12.64 4.07 24.97 8.04 36.78 11.84 1.89-5.18 4-10.35 6.28-15.49l-36.36-17.92c-1.94 7.26-4.18 14.48-6.7 21.57z" fill="#ff32b1"/><path d="m230.37 692.37c-36.24-67.58-30.64-67.09-37.69-66.78-12.84.58-25.57 2.62-37.95 6.04 16.74 19.25 40.91 39.95 75.63 60.74z" fill="#ff556a"/><path d="m192.26 616.22c-.32.01-15.89-35-21.43-48.03l-47.29 11.17c4.34 12.97 11.89 28.06 24.68 44.38 14.31-4.31 29.1-6.86 44.04-7.53z" fill="#ff84a1"/><path d="m193.84 243.67c-26.73-21.75-55.31-41.29-85.25-58.33 53.26 72.91 28.31 53.66 85.25 58.33z" fill="#c675c9"/><path d="m194.61 476.21c-6.58 1.44-24.59-7.77-46.66 7.84 4.5 12.53 9.21 25 14.04 37.42 47.11-48.81 43.03-41.61 32.62-45.26z" fill="#ff3d4e"/><path d="m122.59 419.99c63.01-56.16 56.2-27.15 51.99-65.03-12.23 4.54-42.54 13.6-49.92 13.6-2.52 0-6.96 25.12-2.07 51.42z" fill="#ffd134"/><path d="m137.81 460.82c15.77-9.66 33.97-13 52.18-9.94-4.35-20.64-8.06-41.5-11.1-62.45-19 12.56-37.09 26.65-53.88 41.98.32-.29 2.24 13.81 12.8 30.41z" fill="#ffba28"/><path d="m126.03 358.8c15.48-2.98 30.73-7.3 45.51-12.8-6.89-6.33-18.3-20.46-25.45-35.5-8.4 15.08-15.44 31.67-20.06 48.3z" fill="#ffa31c"/><path d="m165.75 531.08c7.16 18.03 14.69 35.93 22.54 53.69 4.77-3.35 9.65-6.55 14.64-9.57-21.32-77.58 10.02-93.02-37.18-44.11z" fill="#ff556a"/><path d="m90.48 251.2 40.07 42.51c10.1-16.96 13.85-22.94 21.63-22.16-10.83-14.84-22.32-30.57-34.04-46.62-10.34 7.5-19.62 16.35-27.66 26.27z" fill="#ff46c4"/><path d="m156.77 251.31c8.42 11.53 16.52 22.63 24.11 33.03 4.69-11.22 10.3-21.64 16.1-30.96-13.36-1.2-26.82-1.88-40.21-2.06z" fill="#8d4392"/><path d="m171.97 311.82c.73-3.2 1.59-6.43 2.55-9.66-14.81-20.28-12.67-17.63-12.84-16.97-1.27 4.87 3.69 16.14 10.3 26.63z" fill="#ff6eec"/><path d="m125.7 302.24-18.43-19.56c-3.87 5.73-7.55 11.63-11 17.62 28.63 14.11 22.26 15.16 29.44 1.94z" fill="#ff6eec"/><path d="m406.33 249.96c-15.68 15.57-30.89 31.65-45.48 48.14 13.15 25.21.65 23.15 56.59-16.23-1.18-3.09-3.18-12.6-11.12-31.91z" fill="#ff82ff"/><path d="m399.82 348.24c-17.88 5.85-13.11-.65-7.87 21.65 33.52-9.03 37.75-7.1 38.18-9.25 1.47-7.25.95-14.86-1.37-21.88-9.83 3.22-19.54 6.4-28.94 9.48z" fill="#e38ee4"/><path d="m374.69 324.82c8.22 16.41 2.82 14.26 20.26 8.55 13.9-4.55 11.74 1.51 7.5-29.24-9.35 6.81-18.62 13.7-27.77 20.69z" fill="#ff46c4"/><path d="m458.37 367.05c-12.02 1.26-24.02 3.06-35.92 5.39 3.21 44.32-14.73 33.71 24.78 39.25 5.29-14.41 9.05-29.37 11.14-44.64z" fill="#c675c9"/><path d="m425.64 439.48 7.7 2.48c3.86-6.91 7.32-14.02 10.38-21.29-16.67-2.34-7.21-5.31-18.08 18.81z" fill="#ffa7ff"/><path d="m321.52 179.03c-1.16 9.76-9.56 7.46-16.97 15.92l10.63 17.12 69.02-37.51c-5.17-4.35-10.51-8.44-16.02-12.25-15.71 4.93-31.34 10.54-46.66 16.73z" fill="#c675c9"/><path d="m346.44 266.27c2.51 8.16 5.41 16.24 8.7 24.15 11.06-12.45 22.44-24.7 34.14-36.65l-21.81-16.6c-7.17 9.93-14.22 19.68-21.03 29.11z" fill="#ff5ad8"/><path d="m287.58 431.09-95.7-20.46c2.39 14.09 5.09 28.11 8.08 42.02l83.98-6.8c1.17-5.09 2.38-10.01 3.64-14.77z" fill="#ffd134"/><path d="m320.13 220.05 18.67 30.08c59.73-82.65 70.93-78.77-18.67-30.08z" fill="#ffa7ff"/><path d="m258.52 695.24c21.6-12.58 39.31-25.14 53.76-37.4-9.28-9.25-17.48-19.5-24.47-30.55-10.07 22.56-19.83 45.23-29.3 67.95z" fill="#ff556a"/><path d="m370.42 578.91c-.65-3.16-.08-5.02.74-8.26-73.66 12.32-49.17-19.08-78.65 46.28 7.38 12.7 16.39 24.36 26.84 34.71 29.99-27.21 44.41-52.59 51.07-72.72z" fill="#ff6c85"/><path d="m395.63 512.19 22.18 22.59 27.72-35.48c-32.79-21.41-10.86-20.41-49.9 12.89z" fill="#46399d"/><path d="m250.79 529.22c-.59 7.98-1.1 15.98-1.54 23.99 15.59 14.06 40.75 39.71 42.25 43.18 9.04-19.71 18.3-39.32 27.74-58.8l-31.11-55.95c-28.49 18.33-26.35 43.38-37.33 47.58z" fill="#ff9bbc"/><path d="m397.89 527.88c2.79 17.6 1.42 35.1-3.19 51.81 7.07 9.68 14.13 19.35 21.1 28.88 7.17-13.22 15.01-26.14 23.42-38.59z" fill="#826af8"/><path d="m382.35 680.23c-8.43-12.2-16.56-24.6-24.36-37.17-32.36 38.45-32.37 15.14-13.66 58.34 13.11-6.16 25.87-13.26 38.02-21.16z" fill="#5a49bb"/><path d="m440.55 668.92c-11.17-15.27-23.23-31.75-35.64-48.74l-37.69 19.94c12.7 20.37 26.22 40.29 40.56 59.61z" fill="#46399d"/><path d="m192.16 593.54c14.55 32.35 30.25 64.18 47 95.36-1.81-40.52-1.81-81.28 0-121.83-8.31 4.02-24.72 10.59-47 26.47z" fill="#ff3d4e"/><g fill="#826af8"><path d="m65.98 533.41c37.2 30.99 28.48 32.44 28.48 12.88 0-38.53 20.45-48.23-28.48-12.88z"/><path d="m41.67 685.45c8.56 7.91 17.06 15.93 25.5 24.05.69-1.27-.18-.18 33.17-34.08l-28.87-31.27c-10.54 14.61-20.6 28.55-29.8 41.3z"/><path d="m106.37 595.83c-9.92 13.73-19.77 27.36-29.29 40.55l29.85 32.34c43.82-44.54 25.16-11.02-.56-72.9z"/></g><path d="m98.92 408.95c-.73-7.35-.83-14.78-.02-23.83l-60.54-1.74c2.15 9.9 5 19.63 8.52 29.11 17.24-1.91 34.68-3.09 52.04-3.54z" fill="#c675c9"/><path d="m308.75 166.96c3.68-.65 7.26.66 9.72 3.18 13.02-5.25 26.25-10.06 39.58-14.42-13.43-8.21-27.68-14.9-42.53-19.93-8.77 35.1-8.3 31.44-6.77 31.17z" fill="#8d4392"/><path d="m379.24 455.43 31.46 19.34c5.08-6.08 9.87-12.42 14.27-19.08l-39.23-12.64c-1.89 4.16-4.05 8.29-6.5 12.37z" fill="#ff6eec"/><path d="m35.05 449.7c14.33-4.7 10-.08-.2-25.05z" fill="#46399d"/><path d="m411.28 406.65c1.92-10.65 2.52-21.48 1.84-32.27-6.49 1.43-12.94 3-19.34 4.74 5.24 31.9-6.36 24.19 17.5 27.53z" fill="#8d4392"/><path d="m416.64 436.58c2.79-6.05 5.06-12.32 6.77-18.76-36.67-5.14-26.88-7.78-32.22 10.56z" fill="#aa5cad"/><path d="m205.24 240.93c8.64-12.24 18.86-24.62 29.97-35.25-121.07-9.46-94.89-18.83-29.97 35.25z" fill="#aa5cad"/><path d="m239.24 152.08-.08-27.4c-11.36.41-22.58 1.67-33.57 3.82l33.65 23.57z" fill="#c675c9"/><path d="m348.52 75.35c10.12 9.01 6.02 8.4 16.15 2.14-18.5-17.57-38.47-33.46-60.59-47.95-4.06 17.46-3.34 3.25 44.44 45.81z" fill="#ffff4c"/><path d="m221.66 712.65c-7.21 14.01-13.73 28.43-19.48 43.12h37.13c-.15-40.67 4.44-30.06-17.65-43.12z" fill="#46399d"/><path d="m88.98 481.52c5.14 5.65 10.59 11.01 16.33 16.09 15.32-31.62 19.53-13.65 9.24-33.31z" fill="#ff32b1"/><path d="m199.45 64.45c4.37 15.87 10.03 31.46 16.83 46.48 7.54-1.01 15.16-1.63 22.84-1.89-.07-24.17-.14-47.5-.2-68.65-13.57 7.21-26.75 15.21-39.47 24.06z" fill="#6e5ada"/><path d="m224.89 153.48c-9.19 13.22-16.98 25.57-25.29 40.11 13.67 1 27.13 2 39.78 3-.12-39.64 3.63-30.42-14.49-43.11z" fill="#e38ee4"/><path d="m167.97 139.58c2.31 18.1 5.01 34.12 8.08 52.29 20.38 1.49 6.47 6.08 41.15-43.77l-23.92-16.76c-8.61 2.23-17.07 4.95-25.31 8.23z" fill="#aa5cad"/><path d="m268.62 125.62 20.49 46.35c11.21-3.77 6.93 3.1 17.44-39.01-12.32-3.57-25.01-6.04-37.93-7.34z" fill="#c675c9"/><path d="m302.54 321.15c-5.7-18.91-9.15-19.78-20.5-50.12l-38.1 30.01c19.15 7.64 38.79 14.38 58.6 20.11z" fill="#ffff4c"/><path d="m297.81 249.47 21.75-12.55-20.61-33.2c-7.35 15.91-5.57 31.2-1.14 45.75z" fill="#8d4392"/><path d="m300.82 258.57c3.49 9.84 7.78 20.1 11.43 28.29 6.53-9.03 13.42-18.56 20.61-28.51-10.89-17.53-2.29-16.95-32.04.22z" fill="#c675c9"/><path d="m186.55 375.37c2.77 1.61 3.06 5.22.98 7.33 3.03 21.55-.57 17.29 16.2 20.88 12.76-10.94 25.81-21.66 38.99-32.25-7.4-16.82-16.62-32.86-27.42-47.73-36.11 28.44-33.08 19.32-28.76 51.78z" fill="#ffa31c"/><path d="m167.2 559.46c-3.37-8.06-6.68-16.13-9.9-24.24-2.5-1.19-3.2-3.84-2.33-5.96-5.05-12.84-9.93-25.74-14.62-38.69-16.58 16.81-25.99 46.41-17.85 79.4l44.71-10.51z" fill="#ff9bbc"/><path d="m321.64 310.37s1.45 2.6 1.92 4.49c2.43 8.07 4.02 15.78 4.75 23.12 16.15-28.62 7.38-39.27 17.91-44.59-2.4-5.81-4.63-11.7-6.63-17.65-23.34 32.29-21.25 24.62-17.95 34.63z" fill="#ff6eec"/><path d="m388.44 497.67c5.62-4.97 10.96-10.21 16-15.73l-30.33-18.65c-10.38 14.84-1.95.82 14.33 34.38z" fill="#ff46c4"/><path d="m250.29 365.24c15.45-12.26 31.14-24.21 46.98-35.85-20.94-6.16-41.7-13.38-61.86-21.63-21.36 16.82-9.91 2.57 14.89 57.48z" fill="#ffd134"/><path d="m298.05 453.67c18.21-4.57 8.71 6.29 40.2-55.67l-24.7-13.13c-17.16 37.71-19.9 67.32-21.75 68.88-.68 3.12-1.64 1.93 6.25-.09z" fill="#ffba28"/><path d="m306.13 337.26c-7.95-.75-84.68 63.63-90.76 68.8l74.72 15.97c4.35-15.06 9.22-28.46 14.75-40.67-10.3-9.74 5.43-13.39 1.29-44.1z" fill="#ffd134"/><path d="m322.64 379.08 50.62 26.9c1.41-16.28-1.83-33.66-9.82-53.25-16.02-39.21.22-8.89-40.8 26.34z" fill="#ffff4c"/><path d="m371.82 415.84-25.29-13.44-24.18 47.59c9.95.72 19.57 3.42 28.42 7.9 10.1-12.45 17.74-26.24 21.05-42.05z" fill="#ffd134"/><path d="m344.89 483.35c-12.35-8.31-32.36-12.28-46.99-6.69-2.13.81-4.47-4.79 26.37 50.67 21.37-43.62 22.27-42.87 20.62-43.99z" fill="#ff3d4e"/><path d="m399.32 612.53c-3.98-5.44-7.98-10.92-11.99-16.41-15.17 36.26-34.57 41.05 11.99 16.41z" fill="#6e5ada"/><path d="m373.16 560.8c3.85-25.4-2.37-52.77-19.93-70.49-9.49 18.63-27.26 54.8-36.23 73.69 18.79 1.28 37.64.2 56.16-3.2z" fill="#ff556a"/><path d="m345.91 728.66-22.41-51.74c-8.98 7.44-18.99 14.94-30.22 22.45 7.33 17.2 16.02 33.87 25.93 49.73 8.46-7.34 17.41-14.19 26.7-20.45z" fill="#46399d"/><path d="m9.84 426c-.43-54.19-.54-54.04-.07-66.17l-9.25-4c-.34 7.09-.49 14.2-.45 21.32.49 62.69-2.89 53.54 9.77 48.85z" fill="#ff84a1"/><path d="m10.91 282.33c-4.93 20.83-8.22 42.08-9.78 63.54l9.16 3.96c4.92-76.31 20.67-68.71.63-67.5z" fill="#ff46c4"/><path d="m82.59 145.69-8.82-3.74c-10.64 15.3-20.21 31.25-28.66 47.73 11.75 15.32-1.84 11.96 37.48-44z" fill="#826af8"/><path d="m293.78 113.72c49.36 10.24 35.36 22.69 44.91-13.45-8.73-8.16-17.62-15.78-28.15-23.93z" fill="#6e5ada"/><path d="m11.23 790.18h90.15l2.96-9.38c-93.86 0-82.06-3.15-93.11 9.38z" fill="#826af8"/><path d="m12.04 706.2-9.4-1.99c.77 98.32-2.61 83.35 9.94 70.8z" fill="#c675c9"/><path d="m10.69 535.05c-12.69-10.18-9.54-20.14-8.73 83.07l9.37-1.65z" fill="#ffff4c"/><path d="m2.03 627.64.53 66.96 9.4 1.99c-.64-81.29 3.19-71.26-9.93-68.95z" fill="#ffa31c"/><path d="m10.6 523.34c-.82-104.8 2.44-88.51-10.04-83.89.67 85.01-2.54 75.34 10.04 83.89z" fill="#ffd134"/><path d="m295.7 24.14c-12.74-7.92-25.85-15.14-39.28-21.61-5.31-2.56-4.2-4.72-3.62 8.68 49.26 23.8 39.14 29.14 42.9 12.93z" fill="#ff5ad8"/><path d="m390.03 159.07c-12.9-18.22-27.46-35.43-43.6-51.38-9.65 36.55-9.89 8.48 43.6 51.38z" fill="#5a49bb"/><path d="m122.05 84.39c-15.62 15.53-29.88 32.17-42.7 49.74l8.87 3.76c44.13-59.75 52.59-46.8 33.83-53.49z" fill="#ff6c85"/><path d="m275.98 252.85c-4.66-16.37-5.88-32.83.27-51.16-16.51 9.52-30.36 23.06-42.38 37.75 13.56 5.88 27.66 10.36 42.11 13.41z" fill="#ffa31c"/><path d="m243.35 10.09c-.55-12.84 1.23-11.01-5.93-7.56-15.65 7.53-30.81 16.12-45.49 25.6 12.25 9.9 2.02 5.74 51.42-18.05z" fill="#ff82ff"/><path d="m139.54 80.58c54.97-50.77 58.75-35.25 44.15-47.05-19.37 13.17-37.11 27.48-54.12 43.57 10.25 3.66 9.66 3.77 9.97 3.48z" fill="#ff9bbc"/><path d="m166.21 123.53c53.91-20.28 42.15 5.99 25.16-53.26-11.41 8.37-22.43 17.4-33.02 27.06z" fill="#46399d"/><path d="m372.97 229.56c24.29 18.49 22.48 17.06 22.93 17.57 9.37-9.4 18.86-18.66 28.53-27.65-6.85-10.27-14.61-19.99-23.23-29.01z" fill="#ff32b1"/><path d="m492.84 348.47c-1.42-21.53-4.58-42.81-9.37-63.69l-8.88 3.26c13.99 61.71 1.2 59.96 18.26 60.43z" fill="#ff5ad8"/><path d="m114.19 780.79c-3.96 12.53-15.84 9.38 67.25 9.38-5.31-13.41 1.3-9.38-67.25-9.38z" fill="#ff6eec"/><path d="m450.83 215.95c26.94 61.41 14.09 65.64 30.42 59.65-5.19-20.38-11.94-40.33-20.2-59.67-3.87.28-6.48.28-10.22.02z" fill="#6e5ada"/><path d="m483.86 441.13-.52 65.57 9.36 3.4c.65-83.22 3.7-72.54-8.84-68.96z" fill="#ffe840"/><path d="m363.41 89.31c50.09 49.27 39.77 59.09 52.41 46.67-13.21-18.28-27.96-35.61-44.19-51.75z" fill="#ffa31c"/><path d="m456.99 206.71c-9.97-21.87-21.88-42.91-35.61-62.87-1.82 1.77-4.06 3.95-6.84 6.64 39.46 57.84 23.2 56.59 42.45 56.23z" fill="#826af8"/><path d="m492.13 583.07.5-63.02-9.36-3.4c-.66 84.2-3.85 71.5 8.86 66.42z" fill="#ff3d4e"/><path d="m483.96 357.61c3.66 82.74-8.03 74.78 9.37 71.74l.41-52.23c.13-23.09 1.41-19.21-9.78-19.52z" fill="#ff32b1"/><path d="m356.58 790.18h58.11c.05-3.14.4-6.28.91-9.38-74.54 0-63.15-3.13-59.02 9.38z" fill="#ff6c85"/><path d="m289.25 780.79c-3.59 12.52-14.28 9.38 57.44 9.38-4.42-13.41 1.53-9.38-57.44-9.38z" fill="#ffe840"/><path d="m482.63 596.97-.44 55.96 9.36 2.89c.57-72.12 4.26-64.13-8.92-58.86z" fill="#ffa7ff"/><path d="m191.53 790.18h85.27l2.69-9.38c-105.57 0-93.15-3.73-87.96 9.38z" fill="#ff32b1"/><path d="m482.12 662.73-.41 52.75 9.38-.03c.43-54.32 4.4-48.59-8.97-52.73z" fill="#ff9bbc"/><path d="m490.6 777.89.42-53.05-9.38.03c-.43 54.61-3.47 43.33 8.97 53.02z" fill="#ff46c4"/><path d="m478.79 780.79h-53.71c-.6 3.09-.94 6.24-1 9.38 77.64 0 72.49 3.28 54.71-9.38z" fill="#ff3d4e"/><path d="m40.47 199.05c-11.39 23.68-20.51 48.37-27.17 73.74l9.88-.59c19.65-72.58 29.92-56.69 17.29-73.14z" fill="#32287e"/><path d="m98.29 576.32c-3.17-3.31-6.39-6.58-9.66-9.8l-52.29 47.04.41 51.99c63.43-87.93 62.61-84.96 61.55-89.23z" fill="#6e5ada"/><path d="m78.42 493.13c-9.35-10.15-17.77-21.15-25.21-32.93-22.71 7.47-18.08-.66-17.78 38.21 14.36-1.12 28.76-2.89 42.99-5.28z" fill="#826af8"/><path d="m81.83 560.01c-7.68-7.25-15.58-14.25-23.69-20.94-28.04 20.26-22.33 6.91-21.9 61.95z" fill="#826af8"/><path d="m39.69 313.53 24.9 8.02c2.68-7.53 5.05-15.21 7.05-22.92l-26.13-12.88c-2.29 9.18-4.24 18.44-5.82 27.78z" fill="#ff5ad8"/><path d="m34.76 361.25c1.74 15.97-2.94 12.56 28.24 13.45 2.05-11.64 5.01-23.17 8.74-34.41-9.97-3.21-20.13-6.48-30.38-9.79-3.88-1.25-5.15-8.09-6.6 30.75z" fill="#aa5cad"/><path d="m140.28 648.22c-.42.42-1.59 1.61-44.06 44.78 13.01 11.9 26.47 23.49 40.15 34.59 26.04-78.15 30.36-49.75 3.92-79.38z" fill="#5a49bb"/><path d="m100.4 755.77c-20.57-21.12-41.81-41.85-63.44-61.88l.49 61.88z" fill="#6e5ada"/><path d="m133.25 737.15c-14.87-11.97-29.51-24.54-43.62-37.46l-15.07 15.31c-1.65 1.67-.16.16 38.94 40.76 18.16 0 12.65 3.73 19.75-18.61z" fill="#32287e"/><path d="m201.45 733.03c-17.83-4.33-36.11-6.88-54.44-7.61-1.67 4.88-8.8 27.52-9.63 30.35h54.75c2.92-7.64 6-15.24 9.33-22.74z" fill="#46399d"/><path d="m47.95 276.49 39.87 19.65c4-6.98 8.28-13.85 12.83-20.48l-38.49-40.84c-5.56 13.6-10.29 27.52-14.21 41.67z" fill="#ff82ff"/><path d="m190.99 330.81 86.42-68.06c-17.06-3.34-33.65-8.59-49.53-15.68-18.36 24.29-33.78 53.69-36.88 83.74z" fill="#ffd134"/><path d="m254.76 108.89c.59.56 9.94-.14 29.52 3.07l18.58-41.43c-15.43-11.35-31.57-21.48-48.3-30.35.07 21.16.13 44.52.2 68.71z" fill="#32287e"/><path d="m255 189.31c8.11-5.68 16.53-10.34 25.31-14.02-30.57-69.16-25.57-70.37-25.31 14.02z" fill="#ffa7ff"/><path d="m66.16 225.4c27.53 29.21 6.93 20.64 46.44-8.05-6.57-9-13.19-18.06-19.78-27.08-7.68 8.01-22.41 25.49-26.66 35.13z" fill="#ff5ad8"/><path d="m103.68 159.19c57.21-45.95 58.82-15.38 47.02-54.71-17.5 16.85-33.22 35.19-47.02 54.71z" fill="#826af8"/><path d="m109.21 174.92c30.72 17.18 12.95 12.97 57.21 16.24-2.79-16.48-5.27-31.31-7.42-47.76-17.84 8.07-34.57 18.66-49.78 31.53z" fill="#8d4392"/><path d="m210.3 484.92-6.43 6.66c-1.83 26.56.7 53 7.49 78.73 8.5-4.73 24.52-13.71 28.21-11.46.52-10.15 1.12-20.28 1.87-30.38-8.16-4.71-8.42-25.78-31.14-43.55z" fill="#ff84a1"/><path d="m440.34 460.65c-3.42 5.38-7.04 10.6-10.86 15.65 9.22 7.23 18.91 13.95 28.92 20.06.28-35.78 4.98-28.29-18.06-35.71z" fill="#5a49bb"/><path d="m424.43 541.53 33.34 33.97c.71-90.12 5.81-84.07-33.34-33.97z" fill="#32287e"/><path d="m445.94 576.83c-8.67 12.94-16.71 26.4-23.99 40.15 12.3 16.83 24.19 33.09 35.13 48.03.7-88.59 4.51-72.24-11.14-88.18z" fill="#46399d"/><path d="m456.36 755.77c.6-75.88 4.08-59.67-10.22-79.22l-32.64 30.69c1.75 2.31 36.45 48.53 42.87 48.53z" fill="#32287e"/><path d="m411.07 297.87 3.99 28.92c12.79-4.19 25.92-8.49 39.16-12.83-2.27-13.46-5.28-26.77-9-39.87-11.45 7.76-22.85 15.69-34.15 23.79z" fill="#ff32b1"/><path d="m458.76 450.15.2-25.46c-10.37 25.37-15.05 20.67-.2 25.46z" fill="#5a49bb"/><path d="m437.67 335.84c9.49 28.74-11.23 25 21.26 21.71-.44-9.35-1.26-18.65-2.41-27.89-6.32 2.07-12.6 4.13-18.85 6.18z" fill="#ffa7ff"/><path d="m349.7 737.42c-8.28 5.66-16.26 11.8-23.85 18.35h31.8z" fill="#6e5ada"/><path d="m213.73 460.96c13.75 7.78 24.83 19.71 33.14 33.14 27.21-44.15 77.39-42.09-33.14-33.14z" fill="#ffa31c"/><path d="m283.69 601.35c-11.02-12.49-22.8-24.51-35.05-35.9-1.98 42.87-1.96 85.97.14 128.79 47.77-114.93 41.41-85.53 34.91-92.89z" fill="#ff556a"/><path d="m425.48 276.2c5.62-3.9 11.27-7.74 16.92-11.56-3.87-12.37-8.38-24.53-13.52-36.44-21.3 19.89-15.62 6.37-3.4 48z" fill="#ff5ad8"/><path d="m296.54 728.3c-4.03-7.78-7.79-15.69-11.25-23.72-35.98 22.91-30.48 11.98-30.41 32.74 14.31-.87 28.28-3.89 41.66-9.02z" fill="#6e5ada"/><path d="m166.83 674.04c-5.96 13.84-11.53 27.89-16.61 42.13 18.61.93 37.16 3.67 55.24 8.18 12.54-26.81 10.71-8.22-38.63-50.31z" fill="#826af8"/><path d="m440.63 755.77c-18.68-21.72-36.39-44.37-52.94-67.81-12.67 8.25-25.96 15.65-39.64 22.06 19.81 45.73 19.67 45.42 19.82 45.76h72.76z" fill="#6e5ada"/><path d="m312.3 755.77c-3.96-6.26-7.72-12.65-11.3-19.14-46.43 18.22-46.12.29-46.05 19.14z" fill="#5a49bb"/></svg>